<svg width="20" height="20" viewBox="0 0 20 20" fill="none" xmlns="http://www.w3.org/2000/svg">
<path d="M11.6667 15.8333V5.83333M11.6667 15.8333H13.3334M11.6667 15.8333H7.50008M11.6667 5.83333C11.6667 3.99238 10.1744 2.5 8.33342 2.5H5.00008C3.15913 2.5 1.66675 3.99238 1.66675 5.83333V12.5C1.66675 14.0544 2.73064 15.3602 4.16995 15.7291M11.6667 5.83333H14.341C14.7644 5.83333 15.172 5.9945 15.4809 6.2841L17.8067 8.46449C18.1427 8.77957 18.3334 9.2197 18.3334 9.68039V14.1667C18.3334 15.0871 17.5872 15.8333 16.6667 15.8333M16.6667 15.8333C16.6667 16.7538 15.9206 17.5 15.0001 17.5C14.0796 17.5 13.3334 16.7538 13.3334 15.8333M16.6667 15.8333C16.6667 14.9129 15.9206 14.1667 15.0001 14.1667C14.0796 14.1667 13.3334 14.9129 13.3334 15.8333M7.50008 15.8333C7.50008 16.7538 6.75389 17.5 5.83341 17.5C4.91294 17.5 4.16675 16.7538 4.16675 15.8333C4.16675 15.7983 4.16783 15.7636 4.16995 15.7291M7.50008 15.8333C7.50008 14.9129 6.75389 14.1667 5.83341 14.1667C4.94793 14.1667 4.22373 14.8572 4.16995 15.7291" stroke="white" stroke-width="1.6"/>
<path d="M8.33341 6.66667L6.66675 6.66667" stroke="white" stroke-width="1.5" stroke-linecap="round" stroke-linejoin="round"/>
<path d="M8.33333 10L5 10" stroke="white" stroke-width="1.5" stroke-linecap="round" stroke-linejoin="round"/>
</svg>
